# xmcd
#
# Track frame offsets:
#	150
#	13052
#	31191
#	51627
#	72333
#	83268
#	99185
#	138472
#	161787
#	208011
#	224961
#	249042
#	265772
#	278137
#	294980
#
# Disc length: 4173 seconds
#
# Revision: 10
# Processed by: cddbd v1.5.2PL0 Copyright (c) Steve Scherf et al.
# Submitted via: EZCDAudioConverter 2.1.7.1
#
DISCID=d9104b0f
DTITLE=V/A - Experienced!
DYEAR=2006
DGENRE=MOJO
TTITLE0=Lords Of Altamont - Can You See Me
TTITLE1=Noel Redding With 3:05 AM - Stone Free
TTITLE2=The Move - Message From The Country
TTITLE3=Rotary Connection - Burning Of The Midnight Lamp
TTITLE4=Chris Whitley - Drifting
TTITLE5=Jamie Cullum - The Wind Cries Mary
TTITLE6=Lightnin' Rod featuring Jimi Hendrix - Doriella Du Fontaine
TTITLE7=John McLaughlin - Don't Let The Dragon Eat Your Mother
TTITLE8=Santana - La Puesta Del Sol
TTITLE9=Johnny Winter - Help Me
TTITLE10=Curtis Mayfield - Freddie's Dead
TTITLE11=Funkadelic - Super Stupid
TTITLE12=Bootsy Collins - Psychoticbumpschool
TTITLE13=Love - Little Wing
TTITLE14=Hammersmith Gorillas - Wild Thing [Live]
EXTD=
EXTT0=
EXTT1=
EXTT2=
EXTT3=
EXTT4=
EXTT5=
EXTT6=
EXTT7=
EXTT8=
EXTT9=
EXTT10=
EXTT11=
EXTT12=
EXTT13=
EXTT14=
PLAYORDER=
